<svg width="640" height="480" viewBox="0 0 640 480" fill="none" xmlns="http://www.w3.org/2000/svg">
  <rect width="640" height="480" fill="#EFF5F2"/>
  <rect x="56" y="48" width="528" height="384" rx="24" fill="#FBFFFC" stroke="#BFD7CD" stroke-width="2"/>
  <path d="M240 140L285 120H355L400 140L450 220L410 238L386 202V360H254V202L230 238L190 220L240 140Z" fill="#D8E8F5" stroke="#6E8BA0" stroke-width="3"/>
  <path d="M320 120V360" stroke="#6E8BA0" stroke-width="3"/>
  <path d="M307 160H333" stroke="#6E8BA0" stroke-width="3"/>
  <circle cx="320" cy="185" r="4" fill="#6E8BA0"/>
  <circle cx="320" cy="220" r="4" fill="#6E8BA0"/>
  <circle cx="320" cy="255" r="4" fill="#6E8BA0"/>
  <circle cx="320" cy="290" r="4" fill="#6E8BA0"/>
  <path d="M285 120L320 170L355 120" stroke="#4F6A80" stroke-width="3"/>
  <circle cx="320" cy="94" r="24" fill="#C8E0EE" stroke="#6E8BA0" stroke-width="3"/>
  <text x="320" y="445" text-anchor="middle" font-family="Trebuchet MS, sans-serif" font-size="24" fill="#4A6172">Harbor Button-Up Pattern</text>
</svg>
